<?xml version="1.0" encoding="UTF-8"?>
<svg id="svg54" xmlns="http://www.w3.org/2000/svg" viewBox="0 0 351.79 84.52">
  <defs>
    <style>
      .cls-1 {
        fill: #fff;
      }
    </style>
  </defs>
  <g id="_レイヤー_2" data-name="レイヤー 2">
    <g id="_基本ロゴ" data-name="基本ロゴ">
      <path id="path38" class="cls-1" d="M275.91.48l-23.93,15.32s-6.79,4.14-6.79,13.88v27.51c0,4.87,3.95,8.82,8.82,8.82s8.82-3.95,8.82-8.82v-22.51c0-5.6,3.87-7.35,3.87-7.35l18.71-11.99V4.7l-9.5-4.22Z"/>
      <path id="path40" class="cls-1" d="M31.95,3.38c-15.97,0-29.47,11.8-31.63,27.62-.21.74-.32,1.5-.32,2.27v51.25l17.64-11.5v-37.69h0c-.02-7.92,6.38-14.36,14.31-14.38,7.92-.02,14.36,6.38,14.38,14.31.02,7.92-6.38,14.36-14.31,14.38-2.64,0-5.23-.71-7.48-2.08v18.84c17.16,4.1,34.39-6.49,38.49-23.65,4.1-17.16-6.49-34.39-23.65-38.49-2.43-.58-4.92-.87-7.42-.87Z"/>
      <path id="path42" class="cls-1" d="M131.32,3.38c-17.65,0-31.95,14.3-31.95,31.95s14.3,31.95,31.95,31.95h0c2.5,0,4.98-.29,7.41-.87v-18.85c-6.76,4.09-15.55,1.92-19.64-4.84s-1.92-15.55,4.84-19.64c6.76-4.09,15.55-1.92,19.64,4.84,1.35,2.24,2.07,4.8,2.06,7.41v23.85l6.37,4.17,11.27,7.25v-35.26c-.02-17.64-14.31-31.92-31.95-31.95Z"/>
      <path id="path44" class="cls-1" d="M204.32,3.38c-15.96,0-29.47,11.8-31.62,27.62-.21.74-.32,1.51-.32,2.28v39.75l17.63,11.26v-48.95h0c-.02-7.92,6.38-14.36,14.3-14.39,7.92-.02,14.36,6.38,14.39,14.3.02,7.92-6.38,14.36-14.3,14.39-2.64,0-5.23-.71-7.49-2.08v18.84c17.16,4.1,34.39-6.49,38.49-23.65,4.1-17.16-6.49-34.39-23.65-38.49-2.43-.58-4.92-.87-7.43-.87h0Z"/>
      <path id="path46" class="cls-1" d="M319.84,3.38c-17.63-.01-31.94,14.27-31.95,31.9,0,12.1,6.82,23.16,17.64,28.57v-28.52c-.02-7.92,6.38-14.36,14.3-14.38,7.92-.02,14.36,6.38,14.38,14.3s-6.38,14.36-14.3,14.38c-2.64,0-5.22-.71-7.48-2.08v18.82c2.43.59,4.91.9,7.41.91h0c17.65-.14,31.84-14.56,31.7-32.2-.14-17.45-14.25-31.56-31.7-31.7h0Z"/>
      <polygon id="polygon48" class="cls-1" points="81.93 0 73.11 4.91 73.11 16.73 81.93 11.82 90.75 16.73 90.75 4.91 81.93 0"/>
      <path id="path50" class="cls-1" d="M73.11,24.23v34.06c0,4.87,3.95,8.82,8.82,8.82s8.82-3.95,8.82-8.82V24.23l-8.82-4.91-8.82,4.91Z"/>
    </g>
  </g>
</svg>