<?xml version="1.0" encoding="UTF-8"?>
<svg id="_图层_1" data-name="图层 1" xmlns="http://www.w3.org/2000/svg" viewBox="0 0 3840 1300">
  <defs>
    <style>
      .cls-1 {
        fill: #fff;
      }
    </style>
  </defs>
  <g>
    <path class="cls-1" d="M49.45,810.54v-376.39h69.98v376.39H49.45ZM97.7,625.53v-25.98h104.43v25.98h-104.43ZM115.72,607.51v-28.1h51.16c16.43,0,28.85-3.58,37.24-10.73,8.39-7.16,12.59-17.71,12.59-31.68,0-12.72-4.46-22.31-13.39-28.76-8.93-6.45-22.31-9.67-40.16-9.67h-46.39l-6.36-64.41h55.4c39.58,0,70.2,8.08,91.84,24.25,21.64,16.17,32.47,39.19,32.47,69.05,0,25.62-8.4,45.37-25.18,59.24-16.79,13.88-40.55,20.81-71.3,20.81h-77.93ZM115.72,810.54v-64.41h67.06c19.08,0,33.93-4.51,44.53-13.52,10.6-9.01,15.9-21.64,15.9-37.9s-5.57-28.54-16.7-37.37c-11.13-8.83-26.95-13.25-47.45-13.25h-62.29l-6.36-28.1h103.9c32.69,0,57.92,7.95,75.68,23.86,17.76,15.9,26.64,38.35,26.64,67.33,0,32.87-10.3,58.31-30.88,76.34-20.59,18.02-49.79,27.04-87.6,27.04h-82.43Z"/>
    <path class="cls-1" d="M367.53,810.54v-376.39h69.98v376.39h-69.98ZM367.53,498.57v-64.41h258.17v64.41h-258.17ZM367.53,654.42v-64.67h210.46v64.67h-210.46ZM367.53,810.54v-64.41h258.17v64.41h-258.17Z"/>
    <path class="cls-1" d="M793.75,815.85c-21.38,0-42.15-1.81-62.29-5.43-20.14-3.62-38.17-8.7-54.07-15.24l9.54-71.57c19.44,8.13,38.74,14.4,57.92,18.82,19.17,4.42,36.89,6.63,53.15,6.63,18.91,0,33.4-3.36,43.47-10.07,10.07-6.71,15.11-16.34,15.11-28.89,0-16.43-10.34-29.51-31.01-39.23l-54.07-26.24c-26.68-13.08-47.36-29.24-62.02-48.51-14.67-19.26-22-40.55-22-63.88,0-32.87,10.87-58.31,32.6-76.34,21.73-18.02,52.48-27.04,92.24-27.04,23.15,0,45.1,4.07,65.87,12.19,20.76,8.13,39.18,19.88,55.27,35.25l-48.24,55.4c-12.19-11.66-24.48-20.63-36.84-26.9-12.37-6.27-24.3-9.41-35.78-9.41-15.55,0-27.66,3.31-36.31,9.94-8.66,6.63-12.99,16.21-12.99,28.76,0,8.31,3.05,16.17,9.14,23.59,6.1,7.42,14.8,14.14,26.11,20.15l50.89,26.24c26.51,13.78,46.96,29.87,61.36,48.24,14.4,18.38,21.6,38.08,21.6,59.11,0,33.4-12.02,59.16-36.05,77.27-24.03,18.12-58.23,27.17-102.58,27.17Z"/>
    <path class="cls-1" d="M982.47,498.57v-64.41h284.68v64.41h-284.68ZM1089.82,810.54v-376.39h69.98v376.39h-69.98Z"/>
    <path class="cls-1" d="M1760.96,815.85c-40.47,0-71.83-12.72-94.1-38.17-22.27-25.45-33.4-61.32-33.4-107.62s11.13-82.39,33.4-107.75c22.27-25.35,53.63-38.04,94.1-38.04s71.83,12.68,94.1,38.04c22.27,25.36,33.4,61.28,33.4,107.75s-11.13,82.17-33.4,107.62c-22.27,25.45-53.63,38.17-94.1,38.17ZM1761.23,747.73c16.26,0,28.85-6.76,37.77-20.28,8.92-13.52,13.39-32.64,13.39-57.39s-4.46-44.09-13.39-57.52c-8.93-13.43-21.6-20.14-38.04-20.14s-28.89,6.72-37.9,20.14c-9.01,13.43-13.52,32.6-13.52,57.52s4.51,43.87,13.52,57.39c9.01,13.52,21.73,20.28,38.17,20.28Z"/>
    <path class="cls-1" d="M1933.52,647v-61.49h268.77v61.49h-268.77ZM2018.87,810.54v-257.11c0-97.19,46.92-145.79,140.75-145.79,21.74,0,42.68,1.77,62.82,5.3l-6.89,66.53c-11.84-1.41-22.31-2.38-31.41-2.92-9.1-.53-17.8-.8-26.11-.8-45.06,0-67.59,25.01-67.59,75.01v259.76h-71.57Z"/>
    <path class="cls-1" d="M2715.19,815.85c-88.53,0-132.8-63.61-132.8-190.84s44.27-196.15,132.8-196.15,132.8,65.38,132.8,196.15-44.27,190.84-132.8,190.84ZM2715.19,752.5c40.29,0,60.43-42.5,60.43-127.5s-20.14-132.8-60.43-132.8-61.49,44.27-61.49,132.8,20.5,127.5,61.49,127.5ZM2714.66,673.51c-10.6,0-19.13-4.42-25.58-13.25-6.45-8.83-9.67-20.58-9.67-35.25s3.22-26.42,9.67-35.25c6.45-8.83,14.98-13.25,25.58-13.25s19.17,4.42,25.71,13.25c6.54,8.84,9.81,20.59,9.81,35.25s-3.27,26.42-9.81,35.25c-6.54,8.84-15.11,13.25-25.71,13.25Z"/>
    <path class="cls-1" d="M2903.65,810.54v-376.39h65.21v376.39h-65.21ZM3008.88,678.81l-31.81-177.86h-16.7l4.24-66.8h38.96l27.57,168.31h2.12l7.42,76.34h-31.81ZM3024.25,678.81l7.95-76.34h3.18l27.57-168.31h38.96l4.24,66.8h-16.7l-31.81,177.86h-33.4ZM3097.67,810.54v-376.39h65.21v376.39h-65.21Z"/>
    <path class="cls-1" d="M3218.81,874.42v-63.88h265.06v63.88h-265.06Z"/>
    <path class="cls-1" d="M3548.28,810.54v-376.39h69.98v376.39h-69.98ZM3611.89,702.66v-64.41h51.69c23.15,0,41.04-6.36,53.67-19.08,12.63-12.72,18.95-30.48,18.95-53.28,0-21.56-6.32-38.17-18.95-49.83-12.64-11.66-30.53-17.49-53.67-17.49h-50.63v-64.41h50.63c47.18,0,83.67,11.09,109.47,33.27,25.8,22.18,38.7,53.5,38.7,93.96,0,44.89-12.9,79.65-38.7,104.3-25.8,24.65-62.29,36.98-109.47,36.98h-51.69Z"/>
  </g>
  <g>
    <path class="cls-1" d="M103.77,328.29c-24.22,0-36.33-18.96-36.33-56.87s12.11-58.45,36.33-58.45,36.33,19.48,36.33,58.45-12.11,56.87-36.33,56.87ZM103.77,321.18c19.38,0,29.07-16.59,29.07-49.76s-9.69-51.34-29.07-51.34-29.07,17.11-29.07,51.34,9.69,49.76,29.07,49.76ZM103.77,279.24c-2.37,0-4.28-.71-5.73-2.13-1.45-1.42-2.17-3.32-2.17-5.69s.72-4.28,2.17-5.73c1.45-1.45,3.36-2.17,5.73-2.17s4.28.72,5.73,2.17c1.45,1.45,2.17,3.36,2.17,5.73s-.72,4.27-2.17,5.69c-1.45,1.42-3.36,2.13-5.73,2.13Z"/>
    <path class="cls-1" d="M163.98,326.71v-112.16h7.11v112.16h-7.11ZM194.94,274.58l-23.06-53.08h-1.9v-6.95h6.16l23.06,53.08h.24l1.03,6.95h-5.53ZM198.33,274.58l1.03-6.95h.16l23.06-53.08h7.58v6.95h-3.32l-23.06,53.08h-5.45ZM227.64,326.71v-112.16h7.11v112.16h-7.11Z"/>
    <path class="cls-1" d="M255.46,333.66v-6.95h78.99v6.95h-78.99Z"/>
    <path class="cls-1" d="M357.68,326.71v-112.16h7.11v112.16h-7.11ZM362.9,288.01v-6.95h27.49c10.21,0,18.11-2.59,23.7-7.78,5.58-5.19,8.37-12.52,8.37-22s-2.79-16.81-8.37-22c-5.58-5.19-13.48-7.78-23.7-7.78h-27.17v-6.95h27.17c12.53,0,22.22,3.2,29.07,9.6,6.84,6.4,10.27,15.44,10.27,27.13s-3.42,20.73-10.27,27.13c-6.85,6.4-16.54,9.6-29.07,9.6h-27.49Z"/>
    <path class="cls-1" d="M549.66,326.71v-6.95h32.46v6.95h-32.46ZM551.24,231.3v-7.27l29.3-9.48v7.58l-29.3,9.16ZM580.54,326.71v-112.16h7.11v112.16h-7.11ZM586.07,326.71v-6.95h29.46v6.95h-29.46Z"/>
    <path class="cls-1" d="M677.32,328.29c-24.22,0-36.33-18.96-36.33-56.87s12.11-58.45,36.33-58.45,36.33,19.48,36.33,58.45-12.11,56.87-36.33,56.87ZM677.32,321.18c19.38,0,29.07-16.59,29.07-49.76s-9.69-51.34-29.07-51.34-29.07,17.11-29.07,51.34,9.69,49.76,29.07,49.76ZM677.32,279.24c-2.37,0-4.28-.71-5.73-2.13-1.45-1.42-2.17-3.32-2.17-5.69s.72-4.28,2.17-5.73c1.45-1.45,3.36-2.17,5.73-2.17s4.28.72,5.73,2.17c1.45,1.45,2.17,3.36,2.17,5.73s-.72,4.27-2.17,5.69c-1.45,1.42-3.36,2.13-5.73,2.13Z"/>
    <path class="cls-1" d="M732.94,250.09v-7.11h72.03v7.11h-72.03ZM758.61,287.22v-69.51h7.42v69.51h-7.42ZM788.07,328.29c-9.85,0-17.22-2.83-22.12-8.49-4.9-5.66-7.35-14.15-7.35-25.47v-13.43h7.42v13.43c0,8.9,1.96,15.57,5.88,20.02,3.92,4.45,9.83,6.67,17.73,6.67,3.26,0,6.32-.14,9.16-.43,2.84-.29,5.66-.7,8.45-1.22l.87,7.03c-3.37.63-6.66,1.11-9.87,1.42-3.21.32-6.61.47-10.19.47Z"/>
    <path class="cls-1" d="M836.27,326.71v-118.48h7.42v118.48h-7.42ZM893.3,326.71v-54.82c0-7.42-1.97-13.15-5.92-17.18s-9.45-6.04-16.51-6.04c-18.11,0-27.17,10.22-27.17,30.65l-5.06-21.17h5.69c1.53-5.63,4.44-9.83,8.73-12.6,4.29-2.76,9.99-4.15,17.1-4.15,9.74,0,17.27,2.69,22.59,8.06,5.32,5.37,7.98,12.95,7.98,22.75v54.5h-7.42Z"/>
    <path class="cls-1" d="M1017.74,326.71l36.89-112.16h10.11l36.89,112.16h-7.19l-34.36-106.08h-.79l-34.36,106.08h-7.19ZM1030.85,295.35v-6.95h56.87v6.95h-56.87Z"/>
    <path class="cls-1" d="M1121.47,326.71v-112.16h7.11v112.16h-7.11ZM1177.47,326.71l-48.26-105.21h-4.34v-6.95h8.29l48.26,105.21h3.32v6.95h-7.27ZM1181.97,326.71v-112.16h7.11v112.16h-7.11Z"/>
    <path class="cls-1" d="M1217.06,326.71v-112.16h7.11v112.16h-7.11ZM1273.06,326.71l-48.26-105.21h-4.34v-6.95h8.29l48.26,105.21h3.32v6.95h-7.27ZM1277.56,326.71v-112.16h7.11v112.16h-7.11Z"/>
    <path class="cls-1" d="M1314.23,221.5v-6.95h64.45v6.95h-64.45ZM1314.23,326.71v-6.95h64.45v6.95h-64.45ZM1342.82,326.71v-112.16h7.11v112.16h-7.11Z"/>
    <path class="cls-1" d="M1436.99,326.71l-36.89-112.16h7.19l34.36,106.08h.79l34.36-106.08h7.19l-36.89,112.16h-10.11Z"/>
    <path class="cls-1" d="M1504.78,326.71v-112.16h7.11v112.16h-7.11ZM1504.78,221.5v-6.95h70.46v6.95h-70.46ZM1504.78,274.03v-6.95h56.24v6.95h-56.24ZM1504.78,326.71v-6.95h70.46v6.95h-70.46Z"/>
    <path class="cls-1" d="M1598.79,326.71v-112.16h7.11v112.16h-7.11ZM1604.79,280.03v-6.95h33.81c7.69,0,13.64-2.15,17.85-6.44,4.21-4.29,6.32-10.33,6.32-18.13,0-8.58-2.11-15.23-6.32-19.94-4.21-4.71-10.16-7.07-17.85-7.07h-33.49l-1.9-6.95h35.39c10,0,17.74,2.82,23.22,8.45,5.48,5.63,8.21,13.61,8.21,23.93s-2.74,18.61-8.21,24.41c-5.48,5.79-13.22,8.69-23.22,8.69h-33.81ZM1665.45,326.71l-27.17-52.76h7.9l27.96,52.76h-8.69Z"/>
    <path class="cls-1" d="M1724.95,328.29c-5.85,0-11.37-.45-16.59-1.34-5.21-.9-10.16-2.24-14.85-4.03l1.11-7.66c5.42,1.95,10.77,3.42,16.03,4.42,5.26,1,10.45,1.5,15.56,1.5,9.9,0,17.3-1.68,22.19-5.05,4.9-3.37,7.35-8.45,7.35-15.24,0-8.69-4.27-15.3-12.8-19.83l-30.25-16.03c-5.27-2.79-9.28-6.08-12.05-9.87-2.76-3.79-4.15-8.37-4.15-13.74,0-9.48,2.72-16.59,8.17-21.33,5.45-4.74,13.65-7.11,24.6-7.11,6.9,0,13.19,1.09,18.88,3.28,5.69,2.19,10.82,5.49,15.4,9.91l-5.13,5.13c-4.9-3.74-9.75-6.54-14.57-8.41-4.82-1.87-9.65-2.8-14.49-2.8-8.58,0-14.99,1.7-19.23,5.09-4.24,3.4-6.36,8.54-6.36,15.44,0,4.16,1.09,7.67,3.28,10.54,2.18,2.87,5.36,5.38,9.52,7.54l28.12,14.53c6.16,3.21,10.75,7.11,13.78,11.69,3.03,4.58,4.54,9.79,4.54,15.64,0,9.27-3.16,16.21-9.48,20.81s-15.85,6.91-28.59,6.91Z"/>
    <path class="cls-1" d="M1782.47,326.71l36.89-112.16h10.11l36.89,112.16h-7.19l-34.36-106.08h-.79l-34.36,106.08h-7.19ZM1795.58,295.35v-6.95h56.87v6.95h-56.87Z"/>
    <path class="cls-1" d="M1885.56,326.71v-112.16h7.11v112.16h-7.11ZM1891.57,280.03v-6.95h33.81c7.69,0,13.64-2.15,17.85-6.44,4.21-4.29,6.32-10.33,6.32-18.13,0-8.58-2.11-15.23-6.32-19.94-4.21-4.71-10.16-7.07-17.85-7.07h-33.49l-1.9-6.95h35.39c10,0,17.75,2.82,23.22,8.45,5.48,5.63,8.21,13.61,8.21,23.93s-2.74,18.61-8.21,24.41c-5.48,5.79-13.22,8.69-23.22,8.69h-33.81ZM1952.23,326.71l-27.17-52.76h7.9l27.96,52.76h-8.69Z"/>
    <path class="cls-1" d="M2013.62,289.27l-41.55-74.72h7.82l35.39,64.37h.63l35.39-64.37h7.82l-41.55,74.72h-3.95ZM2012.04,326.71v-46.6h7.11v46.6h-7.11Z"/>
    <path class="cls-1" d="M2217.67,328.29c-33.6,0-50.39-19.27-50.39-57.82,0-18.27,4.23-32.42,12.68-42.45,8.45-10.03,20.39-15.05,35.82-15.05,7.32,0,13.68,1.22,19.08,3.67,5.4,2.45,9.33,5.94,11.81,10.47l-5.13,5.29c-2.9-3.9-6.58-6.92-11.06-9.08-4.48-2.16-9.32-3.24-14.53-3.24-12.53,0-22.56,4.3-30.09,12.91-7.53,8.61-11.29,20.84-11.29,36.69,0,34.33,14.74,51.5,44.23,51.5,8.11,0,16.09-1.76,23.93-5.29l1.97,7.03c-8.58,3.58-17.59,5.37-27.01,5.37Z"/>
    <path class="cls-1" d="M2302.37,328.29c-26.33,0-39.49-18.96-39.49-56.87s13.16-58.45,39.49-58.45,39.49,19.48,39.49,58.45-13.17,56.87-39.49,56.87ZM2302.37,321.97c21.48,0,32.23-16.85,32.23-50.55s-10.74-51.34-32.23-51.34-32.23,17.11-32.23,51.34,10.74,50.55,32.23,50.55Z"/>
    <path class="cls-1" d="M2362.57,326.71v-112.16h7.11v112.16h-7.11ZM2393.53,274.58l-23.06-53.08h-1.9v-6.95h6.16l23.06,53.08h.24l1.03,6.95h-5.53ZM2396.93,274.58l1.03-6.95h.16l23.06-53.08h7.58v6.95h-3.32l-23.06,53.08h-5.45ZM2426.23,326.71v-112.16h7.11v112.16h-7.11Z"/>
    <path class="cls-1" d="M2460.69,326.71v-112.16h7.11v112.16h-7.11ZM2465.9,288.01v-6.95h27.49c10.21,0,18.11-2.59,23.7-7.78,5.58-5.19,8.37-12.52,8.37-22s-2.79-16.81-8.37-22c-5.58-5.19-13.48-7.78-23.7-7.78h-27.17v-6.95h27.17c12.53,0,22.22,3.2,29.07,9.6,6.84,6.4,10.27,15.44,10.27,27.13s-3.42,20.73-10.27,27.13c-6.85,6.4-16.54,9.6-29.07,9.6h-27.49Z"/>
    <path class="cls-1" d="M2556.91,221.5v-6.95h64.45v6.95h-64.45ZM2556.91,326.71v-6.95h64.45v6.95h-64.45ZM2585.51,326.71v-112.16h7.11v112.16h-7.11Z"/>
    <path class="cls-1" d="M2651.87,326.71v-112.16h7.11v112.16h-7.11ZM2651.87,326.71v-6.95h70.46v6.95h-70.46Z"/>
    <path class="cls-1" d="M2738.38,326.71l36.89-112.16h10.11l36.89,112.16h-7.19l-34.36-106.08h-.79l-34.36,106.08h-7.19ZM2751.49,295.35v-6.95h56.87v6.95h-56.87Z"/>
    <path class="cls-1" d="M2836.74,221.5v-6.95h78.35v6.95h-78.35ZM2872.36,326.71v-112.16h7.11v112.16h-7.11Z"/>
    <path class="cls-1" d="M2939.28,221.5v-6.95h64.45v6.95h-64.45ZM2939.28,326.71v-6.95h64.45v6.95h-64.45ZM2967.87,326.71v-112.16h7.11v112.16h-7.11Z"/>
    <path class="cls-1" d="M3067.09,328.29c-26.33,0-39.49-18.96-39.49-56.87s13.16-58.45,39.49-58.45,39.49,19.48,39.49,58.45-13.17,56.87-39.49,56.87ZM3067.09,321.97c21.48,0,32.23-16.85,32.23-50.55s-10.74-51.34-32.23-51.34-32.23,17.11-32.23,51.34,10.74,50.55,32.23,50.55Z"/>
    <path class="cls-1" d="M3128.88,326.71v-112.16h7.11v112.16h-7.11ZM3184.88,326.71l-48.26-105.21h-4.34v-6.95h8.29l48.26,105.21h3.32v6.95h-7.27ZM3189.38,326.71v-112.16h7.11v112.16h-7.11Z"/>
    <path class="cls-1" d="M3311.93,326.71l36.89-112.16h10.11l36.89,112.16h-7.19l-34.36-106.08h-.79l-34.36,106.08h-7.19ZM3325.04,295.35v-6.95h56.87v6.95h-56.87Z"/>
    <path class="cls-1" d="M3416.6,326.71v-112.16h7.11v112.16h-7.11ZM3416.6,326.71v-6.95h70.46v6.95h-70.46Z"/>
    <path class="cls-1" d="M3512.19,326.71v-112.16h7.11v112.16h-7.11ZM3518.19,266.84v-2.84h25.75c8.32,0,14.77-1.91,19.35-5.73,4.58-3.82,6.87-9.17,6.87-16.07s-2.25-11.68-6.75-15.28c-4.5-3.61-10.83-5.41-19-5.41h-25.91l-1.9-6.95h27.01c10.74,0,19.06,2.41,24.96,7.23,5.9,4.82,8.85,11.62,8.85,20.42,0,7.85-2.3,13.91-6.91,18.21-4.61,4.29-11.15,6.44-19.63,6.44h-32.7ZM3518.19,326.71v-6.95h32.07c8.85,0,15.69-2.01,20.54-6.04,4.84-4.03,7.27-9.7,7.27-17.02,0-8.16-2.38-14.49-7.15-19-4.77-4.5-11.49-6.75-20.18-6.75h-32.23l-1.9-3.48h35.7c10.53,0,18.67,2.55,24.41,7.66,5.74,5.11,8.61,12.3,8.61,21.56s-3.07,16.92-9.2,22.16c-6.13,5.24-14.81,7.86-26.03,7.86h-31.91ZM3517.56,268.81v-3h35.7v3h-35.7Z"/>
    <path class="cls-1" d="M3640.32,328.29c-22.75,0-34.12-12.53-34.12-37.6v-76.14h7.11v76.14c0,10.11,2.18,17.72,6.56,22.83,4.37,5.11,11.29,7.66,20.77,7.66,18.22,0,27.33-10.16,27.33-30.49v-76.14h7.11v76.14c0,12.53-2.95,21.93-8.85,28.2-5.9,6.27-14.53,9.4-25.91,9.4Z"/>
    <path class="cls-1" d="M3700.85,326.71v-112.16h7.11v112.16h-7.11ZM3731.81,274.58l-23.06-53.08h-1.9v-6.95h6.16l23.06,53.08h.24l1.03,6.95h-5.53ZM3735.2,274.58l1.03-6.95h.16l23.06-53.08h7.58v6.95h-3.32l-23.06,53.08h-5.45ZM3764.51,326.71v-112.16h7.11v112.16h-7.11Z"/>
  </g>
  <g>
    <path class="cls-1" d="M858.16,1114.41v-18.38c18-9.96,31.44-20.35,40.34-31.19,8.89-10.83,13.34-21.99,13.34-33.48,0-6.67-1.64-11.68-4.92-15.02-3.28-3.34-8.26-5.01-14.94-5.01-4.43,0-9.06,1.29-13.87,3.86-4.81,2.57-8.95,5.99-12.39,10.26l-11.33-11.24c3.77-5.42,9.14-9.77,16.08-13.05,6.95-3.28,14.22-4.92,21.83-4.92,12.31,0,21.51,2.91,27.62,8.74,6.1,5.83,9.15,14.62,9.15,26.38s-3.73,23.16-11.2,34.02c-7.47,10.86-18.83,21.3-34.1,31.31v17.73h-25.6ZM863.08,1114.41v-15.26h70.91v15.26h-70.91Z"/>
    <path class="cls-1" d="M1027.02,1116.05c-26.48,0-39.72-19.7-39.72-59.09s13.24-60.73,39.72-60.73,39.72,20.24,39.72,60.73-13.24,59.09-39.72,59.09ZM1027.02,1100.95c14.77,0,22.16-14.66,22.16-43.99s-7.39-45.63-22.16-45.63-22.16,15.21-22.16,45.63,7.39,43.99,22.16,43.99ZM1027.02,1069.27c-3.67,0-6.63-1.13-8.9-3.41-2.27-2.27-3.41-5.24-3.41-8.9s1.13-6.7,3.41-8.95c2.27-2.24,5.24-3.36,8.9-3.36s6.7,1.12,8.95,3.36c2.24,2.24,3.36,5.23,3.36,8.95s-1.12,6.63-3.36,8.9c-2.24,2.27-5.23,3.41-8.95,3.41Z"/>
    <path class="cls-1" d="M1122.35,1114.41v-18.38c18-9.96,31.44-20.35,40.34-31.19,8.89-10.83,13.34-21.99,13.34-33.48,0-6.67-1.64-11.68-4.92-15.02-3.28-3.34-8.26-5.01-14.94-5.01-4.43,0-9.06,1.29-13.87,3.86-4.81,2.57-8.95,5.99-12.39,10.26l-11.33-11.24c3.77-5.42,9.14-9.77,16.08-13.05,6.95-3.28,14.22-4.92,21.83-4.92,12.31,0,21.51,2.91,27.62,8.74,6.1,5.83,9.15,14.62,9.15,26.38s-3.73,23.16-11.2,34.02c-7.47,10.86-18.83,21.3-34.1,31.31v17.73h-25.6ZM1127.27,1114.41v-15.26h70.91v15.26h-70.91Z"/>
    <path class="cls-1" d="M1252.48,1074.52v-7.22c0-22.27,5.65-39.2,16.95-50.8,11.3-11.6,28.52-17.97,51.66-19.12l1.64,15.59c-34.69,1.48-52.03,17.07-52.03,46.78v9.36l-18.22,5.42ZM1291.87,1116.05c-13.51,0-23.46-3.37-29.83-10.09-6.37-6.73-9.56-17.21-9.56-31.43l13.62-14.94h6.07c1.64-6.07,4.91-10.76,9.81-14.08,4.9-3.31,10.87-4.96,17.93-4.96,10.18,0,18.03,3.15,23.55,9.44,5.53,6.29,8.29,15.18,8.29,26.67,0,12.37-3.52,22.02-10.55,28.97-7.03,6.95-16.81,10.42-29.34,10.42ZM1292.44,1100.95c6.95,0,12.36-2.15,16.25-6.44,3.88-4.29,5.83-10.24,5.83-17.85,0-6.73-1.79-11.91-5.38-15.55-3.58-3.64-8.71-5.46-15.39-5.46-7.61,0-13.46,1.97-17.56,5.91-4.1,3.94-6.15,9.52-6.15,16.74s1.97,12.67,5.91,16.66c3.94,4,9.44,5.99,16.5,5.99Z"/>
    <path class="cls-1" d="M1423.31,1116.05c-3.34,0-6.2-1.19-8.58-3.57s-3.57-5.24-3.57-8.58,1.19-6.26,3.57-8.62,5.24-3.53,8.58-3.53,6.26,1.18,8.62,3.53c2.35,2.35,3.53,5.22,3.53,8.62s-1.18,6.2-3.53,8.58c-2.35,2.38-5.23,3.57-8.62,3.57Z"/>
    <path class="cls-1" d="M1555.4,1116.05c-12.64,0-22.42-2.94-29.34-8.82-6.92-5.88-10.38-14.16-10.38-24.83,0-9.79,3.46-17.36,10.38-22.69,6.92-5.33,16.7-8,29.34-8s22.42,2.67,29.34,8c6.92,5.33,10.38,12.9,10.38,22.69,0,10.67-3.46,18.94-10.38,24.83-6.92,5.88-16.7,8.82-29.34,8.82ZM1555.4,1053.19c-11.54,0-20.5-2.39-26.88-7.18-6.37-4.79-9.56-11.53-9.56-20.23,0-9.36,3.19-16.62,9.56-21.79,6.37-5.17,15.33-7.75,26.88-7.75s20.57,2.58,26.92,7.75c6.35,5.17,9.52,12.43,9.52,21.79,0,8.7-3.17,15.44-9.52,20.23-6.35,4.79-15.32,7.18-26.92,7.18ZM1555.4,1100.95c7.17,0,12.71-1.7,16.62-5.09,3.91-3.39,5.87-8.15,5.87-14.28,0-6.57-1.96-11.68-5.87-15.35-3.91-3.67-9.45-5.5-16.62-5.5s-12.71,1.83-16.62,5.5c-3.91,3.67-5.87,8.78-5.87,15.35,0,6.13,1.96,10.89,5.87,14.28,3.91,3.39,9.45,5.09,16.62,5.09ZM1555.4,1044.98c6.13,0,10.86-1.41,14.2-4.23,3.34-2.82,5.01-6.71,5.01-11.69,0-5.69-1.67-10.07-5.01-13.13-3.34-3.06-8.07-4.6-14.2-4.6s-10.86,1.53-14.2,4.6c-3.34,3.06-5.01,7.44-5.01,13.13,0,4.98,1.67,8.88,5.01,11.69,3.34,2.82,8.07,4.23,14.2,4.23ZM1541.78,1056.47v-8.37h27.41v8.37h-27.41Z"/>
    <path class="cls-1" d="M1687.5,1116.05c-3.34,0-6.2-1.19-8.58-3.57s-3.57-5.24-3.57-8.58,1.19-6.26,3.57-8.62,5.24-3.53,8.58-3.53,6.26,1.18,8.62,3.53c2.35,2.35,3.53,5.22,3.53,8.62s-1.18,6.2-3.53,8.58c-2.35,2.38-5.23,3.57-8.62,3.57Z"/>
    <path class="cls-1" d="M1782.82,1114.41v-18.38c18-9.96,31.44-20.35,40.34-31.19,8.89-10.83,13.34-21.99,13.34-33.48,0-6.67-1.64-11.68-4.92-15.02-3.28-3.34-8.26-5.01-14.94-5.01-4.43,0-9.06,1.29-13.87,3.86-4.81,2.57-8.95,5.99-12.39,10.26l-11.33-11.24c3.77-5.42,9.14-9.77,16.08-13.05,6.95-3.28,14.22-4.92,21.83-4.92,12.31,0,21.51,2.91,27.62,8.74,6.1,5.83,9.15,14.62,9.15,26.38s-3.73,23.16-11.2,34.02c-7.47,10.86-18.83,21.3-34.1,31.31v17.73h-25.6ZM1787.75,1114.41v-15.26h70.91v15.26h-70.91Z"/>
    <path class="cls-1" d="M1912.95,1074.52v-7.22c0-22.27,5.65-39.2,16.95-50.8,11.3-11.6,28.52-17.97,51.66-19.12l1.64,15.59c-34.69,1.48-52.03,17.07-52.03,46.78v9.36l-18.22,5.42ZM1952.34,1116.05c-13.51,0-23.46-3.37-29.83-10.09-6.37-6.73-9.56-17.21-9.56-31.43l13.62-14.94h6.07c1.64-6.07,4.91-10.76,9.81-14.08,4.9-3.31,10.87-4.96,17.93-4.96,10.18,0,18.03,3.15,23.55,9.44,5.53,6.29,8.29,15.18,8.29,26.67,0,12.37-3.52,22.02-10.55,28.97-7.03,6.95-16.81,10.42-29.34,10.42ZM1952.92,1100.95c6.95,0,12.36-2.15,16.25-6.44,3.88-4.29,5.83-10.24,5.83-17.85,0-6.73-1.79-11.91-5.38-15.55-3.58-3.64-8.71-5.46-15.39-5.46-7.61,0-13.46,1.97-17.56,5.91-4.1,3.94-6.16,9.52-6.16,16.74s1.97,12.67,5.91,16.66c3.94,4,9.44,5.99,16.5,5.99Z"/>
    <path class="cls-1" d="M2178.12,1114.41v-116.54h16.41v116.54h-16.41ZM2193.39,1070.09v-15.59h24.78c6.51,0,11.58-1.72,15.22-5.17,3.64-3.45,5.46-8.29,5.46-14.53,0-6.84-1.82-12.11-5.46-15.8-3.64-3.69-8.71-5.54-15.22-5.54h-24.46l-1.97-15.59h26.43c12.09,0,21.43,3.06,28.03,9.19,6.59,6.13,9.89,14.83,9.89,26.1s-3.3,20.79-9.89,27.25c-6.59,6.46-15.93,9.68-28.03,9.68h-24.78ZM2240.66,1114.41l-26.1-54.82h18.05l27.74,54.82h-19.7Z"/>
    <path class="cls-1" d="M2356.34,1116.05c-14.83,0-26.28-3.9-34.35-11.69-8.07-7.8-12.1-19-12.1-33.61s3.42-25.28,10.26-33.16c6.84-7.88,16.5-11.82,28.97-11.82,11.76,0,20.86,3.56,27.29,10.67,6.43,7.11,9.64,17.45,9.64,31.02,0,3.99-.16,7.71-.49,11.16h-61.06v-13.29h45.79c0-7.82-1.86-13.83-5.58-18.01s-8.86-6.28-15.43-6.28c-7.39,0-13.12,2.52-17.19,7.55-4.08,5.03-6.11,12.15-6.11,21.34,0,10.07,2.8,17.73,8.41,22.98,5.61,5.25,13.58,7.88,23.92,7.88,3.61,0,7.17-.21,10.67-.62,3.5-.41,7.06-.97,10.67-1.68l2.13,15.26c-5.14.98-9.85,1.61-14.12,1.89-4.27.27-8.04.41-11.33.41Z"/>
    <path class="cls-1" d="M2438.87,1005.59v-14.28h27.08v14.28h-27.08ZM2493.03,1116.05c-10.07,0-17.34-2.74-21.83-8.21-4.49-5.47-6.73-14.22-6.73-26.26v-90.27h17.4v89.45c0,4.6.44,8.34,1.31,11.24.88,2.9,2.58,5.03,5.13,6.4,2.54,1.37,6.3,2.05,11.28,2.05,4.54,0,10.34-1.04,17.4-3.12l1.97,15.26c-4.43,1.2-8.69,2.08-12.76,2.63-4.08.55-8.47.82-13.17.82Z"/>
    <path class="cls-1" d="M2620.53,1116.05c-14.83,0-26.28-3.9-34.35-11.69-8.07-7.8-12.1-19-12.1-33.61s3.42-25.28,10.26-33.16c6.84-7.88,16.5-11.82,28.97-11.82,11.76,0,20.86,3.56,27.29,10.67,6.43,7.11,9.64,17.45,9.64,31.02,0,3.99-.16,7.71-.49,11.16h-61.06v-13.29h45.79c0-7.82-1.86-13.83-5.58-18.01s-8.86-6.28-15.43-6.28c-7.39,0-13.12,2.52-17.19,7.55-4.08,5.03-6.11,12.15-6.11,21.34,0,10.07,2.8,17.73,8.41,22.98,5.61,5.25,13.58,7.88,23.92,7.88,3.61,0,7.17-.21,10.67-.62,3.5-.41,7.06-.97,10.67-1.68l2.13,15.26c-5.14.98-9.85,1.61-14.12,1.89-4.27.27-8.04.41-11.33.41Z"/>
    <path class="cls-1" d="M2731.45,1116.05c-9.08,0-16.11-2.19-21.09-6.57-4.98-4.38-7.47-10.56-7.47-18.55,0-9.19,3.43-16.25,10.3-21.17,6.87-4.92,16.56-7.39,29.09-7.39,5.2,0,9.83.32,13.91.94,4.08.63,7.7,1.57,10.87,2.83l-3.61,11.82c-3.67-.82-7.25-1.3-10.75-1.44-3.5-.14-7.09-.21-10.75-.21-15.1,0-22.65,4.6-22.65,13.79,0,3.83,1.3,6.79,3.9,8.86,2.6,2.08,6.28,3.12,11.04,3.12,5.42,0,9.94-.93,13.58-2.79,3.64-1.86,6.36-4.24,8.17-7.14,1.81-2.9,2.71-5.88,2.71-8.95v-9.52l5.09,22.32h-6.89l2.79-2.63c0,5.03-1.16,9.23-3.49,12.6-2.33,3.37-5.59,5.88-9.81,7.55-4.21,1.67-9.19,2.5-14.94,2.5ZM2762.14,1115.23l-1.15-25.77-2.3-7.22v-22.49c0-5.8-2.04-10.05-6.11-12.76-4.08-2.71-10.14-4.17-18.18-4.39l-20.85-.57,1.64-15.43,17.56.25c14.39.22,25.07,3.32,32.05,9.31,6.98,5.99,10.46,14.73,10.46,26.22v36.27l14.77,1.81v13.95l-27.9.82Z"/>
    <path class="cls-1" d="M2869.62,1116.05c-6.57,0-12.19-.19-16.87-.58s-8.96-1.01-12.84-1.89l1.97-15.76c5.74.88,10.82,1.53,15.22,1.97,4.4.44,8.58.66,12.52.66,8.81,0,15.2-.86,19.16-2.58,3.97-1.72,5.95-4.47,5.95-8.25,0-2.63-.7-4.58-2.09-5.87-1.4-1.28-3.54-2.28-6.44-3l-20.02-5.09c-8.59-2.19-14.89-4.9-18.92-8.12-4.02-3.23-6.03-8.12-6.03-14.69,0-9.52,3.65-16.41,10.96-20.68,7.3-4.27,19.08-6.4,35.33-6.4,4.21,0,8.14.12,11.78.37,3.64.25,7.37.67,11.2,1.27l-1.81,15.1c-4.43-.44-8.34-.74-11.74-.9-3.39-.16-6.7-.25-9.93-.25-9.74,0-16.8.83-21.17,2.5-4.38,1.67-6.57,4.39-6.57,8.17,0,2.52.9,4.34,2.71,5.46,1.81,1.12,4.57,2.15,8.29,3.08l16.08,3.94c9.14,2.19,15.83,5.12,20.07,8.78,4.24,3.67,6.36,9,6.36,16,0,9.36-3.42,16.15-10.26,20.39-6.84,4.24-17.81,6.36-32.91,6.36Z"/>
    <path class="cls-1" d="M3016.81,1116.05c-14.83,0-26.28-3.9-34.35-11.69-8.07-7.8-12.1-19-12.1-33.61s3.42-25.28,10.26-33.16c6.84-7.88,16.5-11.82,28.97-11.82,11.76,0,20.86,3.56,27.29,10.67,6.43,7.11,9.64,17.45,9.64,31.02,0,3.99-.16,7.71-.49,11.16h-61.06v-13.29h45.79c0-7.82-1.86-13.83-5.58-18.01s-8.86-6.28-15.43-6.28c-7.39,0-13.12,2.52-17.19,7.55-4.08,5.03-6.11,12.15-6.11,21.34,0,10.07,2.8,17.73,8.41,22.98,5.61,5.25,13.58,7.88,23.92,7.88,3.61,0,7.17-.21,10.67-.62,3.5-.41,7.06-.97,10.67-1.68l2.13,15.26c-5.14.98-9.85,1.61-14.12,1.89-4.27.27-8.04.41-11.33.41Z"/>
  </g>
</svg>